<svg xmlns="http://www.w3.org/2000/svg" version="1.1" x="0" y="0" viewBox="-3 -1 16 64" width="16" height="64" enable-background="new -3 -1 16 64" xml:space="preserve"><path fill="#CCC" d="M-0.37 6.4c-0.38 0-0.66 0.35-0.63 0.77l0.36 4.25c0.02 0.21 0.18 0.38 0.37 0.38h0.98V6.4H-0.37L-0.37 6.4zM3.64 6.24l2.17-3.05C5.92 3.03 6.05 2.73 6.08 2.53L6.31 1.3c0.04-0.2 0.22-0.33 0.42-0.29l0.55 0.13C7.47 1.18 7.62 1.38 7.61 1.59L7.58 3.06C7.57 3.27 7.52 3.6 7.45 3.8L7.05 5.06C6.92 5.45 7.18 6.13 7.58 6.13h2.74c0.4 0 0.73 0.46 0.67 0.87l-0.79 5.26C10.14 12.67 9.78 13 9.38 13H7.19c-0.2 0-0.51-0.04-0.7-0.09l-4.06-1.04V6.54h0.65C3.27 6.54 3.52 6.41 3.64 6.24z"/><path fill="#666" d="M-0.37 22.4c-0.38 0-0.66 0.35-0.63 0.77l0.36 4.25c0.02 0.21 0.18 0.38 0.37 0.38h0.98v-5.4H-0.37L-0.37 22.4zM3.64 22.24l2.17-3.05c0.12-0.16 0.24-0.47 0.28-0.67L6.31 17.3c0.04-0.2 0.22-0.33 0.42-0.29l0.55 0.13c0.19 0.04 0.34 0.25 0.34 0.46l-0.04 1.47c0 0.21-0.06 0.54-0.12 0.73L7.05 21.06c-0.13 0.39 0.13 1.07 0.53 1.07h2.74c0.4 0 0.73 0.46 0.67 0.87l-0.79 5.26C10.14 28.67 9.78 29 9.38 29H7.19c-0.2 0-0.51-0.04-0.7-0.09l-4.06-1.04V22.54h0.65C3.27 22.54 3.52 22.41 3.64 22.24z"/><path fill="#FFF" d="M-0.37 38.4c-0.38 0-0.66 0.35-0.63 0.77l0.36 4.25c0.02 0.21 0.18 0.38 0.37 0.38h0.98v-5.4H-0.37L-0.37 38.4zM3.64 38.24l2.17-3.05c0.12-0.16 0.24-0.47 0.28-0.67L6.31 33.3c0.04-0.2 0.22-0.33 0.42-0.29l0.55 0.13c0.19 0.04 0.34 0.25 0.34 0.46l-0.04 1.47c0 0.21-0.06 0.54-0.12 0.73L7.05 37.06c-0.13 0.39 0.13 1.07 0.53 1.07h2.74c0.4 0 0.73 0.46 0.67 0.87l-0.79 5.26C10.14 44.67 9.78 45 9.38 45H7.19c-0.2 0-0.51-0.04-0.7-0.09l-4.06-1.04V38.54h0.65C3.27 38.54 3.52 38.41 3.64 38.24z"/><path fill="#FC4C01" d="M-0.37 54.4c-0.38 0-0.66 0.35-0.63 0.77l0.36 4.25c0.02 0.21 0.18 0.38 0.37 0.38h0.98v-5.4H-0.37L-0.37 54.4zM3.64 54.24l2.17-3.05c0.12-0.16 0.24-0.47 0.28-0.67L6.31 49.3c0.04-0.2 0.22-0.33 0.42-0.29l0.55 0.13c0.19 0.04 0.34 0.25 0.34 0.46l-0.04 1.47c0 0.21-0.06 0.54-0.12 0.73L7.05 53.06c-0.13 0.39 0.13 1.07 0.53 1.07h2.74c0.4 0 0.73 0.46 0.67 0.87l-0.79 5.26C10.14 60.67 9.78 61 9.38 61H7.19c-0.2 0-0.51-0.04-0.7-0.09l-4.06-1.04V54.54h0.65C3.27 54.54 3.52 54.41 3.64 54.24z"/></svg>
