<svg xmlns="http://www.w3.org/2000/svg" version="1.1" x="0" y="0" viewBox="-3 -1 16 64" width="16" height="64" enable-background="new -3 -1 16 64" xml:space="preserve"><path fill="#666" d="M-1.9 27.9v-1.7c0-0.2 0.1-0.4 0.3-0.6l2.5-1.6c0.3-0.2 0.4-0.6 0.2-1 -0.2-0.3-0.4-0.7-0.4-1.2L0.6 20.4c0-1 0.7-1.9 1.7-1.9s1.7 0.8 1.7 1.9v1.6c0 0.5-0.1 0.9-0.4 1.2C3.3 23.5 3.4 23.9 3.7 24.1l2.5 1.6c0.2 0.1 0.3 0.3 0.3 0.6l0 1.7H-1.9z"/><path fill="#666" d="M11.9 25c0-0.4-0.2-0.7-0.5-0.9L8.9 22.5c-0.1-0.1-0.2-0.2-0.1-0.4 0.3-0.4 0.5-0.9 0.5-1.4v-1.6c0-1.2-0.9-2.3-2-2.3 -1.1 0-2 1-2 2.3l0 1.6c0 0.5 0.2 1 0.5 1.4 0.1 0.1 0.1 0.3-0.1 0.3l-0.8 0.5 0.4 0.7 0.8-0.5c0.5-0.3 0.7-1.1 0.3-1.6 -0.2-0.3-0.3-0.6-0.3-0.9l0-1.6c0-0.8 0.6-1.4 1.3-1.4 0.7 0 1.3 0.6 1.3 1.5v1.6c0 0.3-0.1 0.7-0.3 0.9 -0.4 0.5-0.2 1.3 0.3 1.6l2.5 1.6c0.1 0 0.1 0.1 0.1 0.2l0 1.3H8.3v0.8h3.7V25z"/><path fill="#CCC" d="M-1.9 11.9v-1.7c0-0.2 0.1-0.4 0.3-0.6l2.5-1.6c0.3-0.2 0.4-0.6 0.2-1C0.8 6.8 0.6 6.4 0.6 6L0.6 4.4c0-1 0.7-1.9 1.7-1.9s1.7 0.8 1.7 1.9v1.6c0 0.5-0.1 0.9-0.4 1.2C3.3 7.5 3.4 7.9 3.7 8.1l2.5 1.6c0.2 0.1 0.3 0.3 0.3 0.6l0 1.7H-1.9z"/><path fill="#CCC" d="M11.9 9c0-0.4-0.2-0.7-0.5-0.9L8.9 6.5C8.8 6.4 8.8 6.2 8.9 6.1c0.3-0.4 0.5-0.9 0.5-1.4V3.1c0-1.2-0.9-2.3-2-2.3 -1.1 0-2 1-2 2.3l0 1.6c0 0.5 0.2 1 0.5 1.4 0.1 0.1 0.1 0.3-0.1 0.3L4.9 6.9 5.2 7.7l0.8-0.5c0.5-0.3 0.7-1.1 0.3-1.6 -0.2-0.3-0.3-0.6-0.3-0.9L6 3.1c0-0.8 0.6-1.4 1.3-1.4 0.7 0 1.3 0.6 1.3 1.5v1.6c0 0.3-0.1 0.7-0.3 0.9C7.9 6.1 8 6.9 8.6 7.2l2.5 1.6c0.1 0 0.1 0.1 0.1 0.2l0 1.3H8.3v0.8h3.7V9z"/><path fill="#FFF" d="M-1.9 43.9v-1.7c0-0.2 0.1-0.4 0.3-0.6l2.5-1.6c0.3-0.2 0.4-0.6 0.2-1 -0.2-0.3-0.4-0.7-0.4-1.2L0.6 36.4c0-1 0.7-1.9 1.7-1.9s1.7 0.8 1.7 1.9v1.6c0 0.5-0.1 0.9-0.4 1.2C3.3 39.5 3.4 39.9 3.7 40.1l2.5 1.6c0.2 0.1 0.3 0.3 0.3 0.6l0 1.7H-1.9z"/><path fill="#FFF" d="M11.4 40.1L8.9 38.5c-0.1-0.1-0.2-0.2-0.1-0.4 0.3-0.4 0.5-0.9 0.5-1.4v-1.6c0-1.2-0.9-2.3-2-2.3 -1.1 0-2 1-2 2.3l0 1.6c0 0.5 0.2 1 0.5 1.4 0.1 0.1 0.1 0.3-0.1 0.3l-0.8 0.5 0.4 0.7 0.8-0.5c0.5-0.3 0.7-1.1 0.3-1.6 -0.2-0.3-0.3-0.6-0.3-0.9l0-1.6c0-0.8 0.6-1.4 1.3-1.4 0.7 0 1.3 0.6 1.3 1.5v1.6c0 0.3-0.1 0.7-0.3 0.9 -0.4 0.5-0.2 1.3 0.3 1.6l2.5 1.6c0.1 0 0.1 0.1 0.1 0.2l0 1.3H8.3v0.8h3.7v-2.1C11.9 40.6 11.7 40.2 11.4 40.1z"/><path fill="#FC4C01" d="M-1.9 59.9v-1.7c0-0.2 0.1-0.4 0.3-0.6l2.5-1.6c0.3-0.2 0.4-0.6 0.2-1 -0.2-0.3-0.4-0.7-0.4-1.2L0.6 52.4c0-1 0.7-1.9 1.7-1.9s1.7 0.8 1.7 1.9v1.6c0 0.5-0.1 0.9-0.4 1.2C3.3 55.5 3.4 55.9 3.7 56.1l2.5 1.6c0.2 0.1 0.3 0.3 0.3 0.6l0 1.7H-1.9z"/></svg>
