<svg xmlns="http://www.w3.org/2000/svg" version="1.1" x="0" y="0" viewBox="-3 -1 16 64" width="16" height="64" enable-background="new -3 -1 16 64" xml:space="preserve"><path fill="#CCC" d="M0.93 5.45c-1.58 0-2.87 1.29-2.87 2.87 0 1.59 1.29 2.87 2.87 2.87s2.87-1.28 2.87-2.87C3.8 6.73 2.52 5.45 0.93 5.45"/><path fill="#CCC" d="M9.32 5.45c-0.17 0-0.36 0.02-0.52 0.05L8.46 4.58V3.88h0.84v0.28c0 0.28 0.19 0.51 0.47 0.51 0.28 0 0.47-0.23 0.47-0.51V3.4c0-0.28-0.19-0.46-0.47-0.46H8c-0.28 0-0.48 0.18-0.48 0.46V4.19h-3.73L3.53 3.67h0.66c0.28 0 0.51-0.24 0.51-0.52S4.47 2.62 4.18 2.62H1.9c-0.28 0-0.51 0.24-0.51 0.53s0.23 0.53 0.51 0.53H2.39l2.17 4.26c0.09 0.18 0.27 0.27 0.45 0.27 0.08 0 0.16-0.02 0.23-0.06 0.25-0.13 0.35-0.45 0.22-0.7l-1.16-2.31h3.33l0.23 0.69C7.02 6.32 6.45 7.25 6.45 8.31c0 1.59 1.29 2.88 2.87 2.88s2.87-1.28 2.87-2.87C12.19 6.73 10.9 5.45 9.32 5.45"/><path fill="#666" d="M0.93 21.45c-1.58 0-2.87 1.29-2.87 2.87 0 1.59 1.29 2.87 2.87 2.87s2.87-1.28 2.87-2.87C3.8 22.73 2.52 21.45 0.93 21.45"/><path fill="#666" d="M9.32 21.45c-0.17 0-0.36 0.02-0.52 0.05L8.46 20.58v-0.7h0.84v0.28c0 0.28 0.19 0.51 0.47 0.51 0.28 0 0.47-0.23 0.47-0.51v-0.76c0-0.28-0.19-0.46-0.47-0.46H8c-0.28 0-0.48 0.18-0.48 0.46v0.8h-3.73l-0.26-0.52h0.66c0.28 0 0.51-0.24 0.51-0.52s-0.23-0.52-0.51-0.52H1.9c-0.28 0-0.51 0.24-0.51 0.53s0.23 0.53 0.51 0.53H2.39l2.17 4.26c0.09 0.18 0.27 0.27 0.45 0.27 0.08 0 0.16-0.02 0.23-0.06 0.25-0.13 0.35-0.45 0.22-0.7l-1.16-2.31h3.33l0.23 0.69c-0.85 0.5-1.42 1.43-1.42 2.48 0 1.59 1.29 2.88 2.87 2.88s2.87-1.28 2.87-2.87C12.19 22.73 10.9 21.45 9.32 21.45"/><path fill="#FFF" d="M0.93 38.45c-1.58 0-2.87 1.29-2.87 2.87 0 1.59 1.29 2.87 2.87 2.87s2.87-1.28 2.87-2.87C3.8 39.73 2.52 38.45 0.93 38.45"/><path fill="#FFF" d="M9.32 38.45c-0.17 0-0.36 0.02-0.52 0.05L8.46 37.58v-0.7h0.84v0.28c0 0.28 0.19 0.51 0.47 0.51 0.28 0 0.47-0.23 0.47-0.51v-0.76c0-0.28-0.19-0.46-0.47-0.46H8c-0.28 0-0.48 0.18-0.48 0.46v0.8h-3.73l-0.26-0.52h0.66c0.28 0 0.51-0.24 0.51-0.52s-0.23-0.52-0.51-0.52H1.9c-0.28 0-0.51 0.24-0.51 0.53s0.23 0.53 0.51 0.53H2.39l2.17 4.26c0.09 0.18 0.27 0.27 0.45 0.27 0.08 0 0.16-0.02 0.23-0.06 0.25-0.13 0.35-0.45 0.22-0.7l-1.16-2.31h3.33l0.23 0.69c-0.85 0.5-1.42 1.43-1.42 2.48 0 1.59 1.29 2.88 2.87 2.88s2.87-1.28 2.87-2.87C12.19 39.73 10.9 38.45 9.32 38.45"/><path fill="#FC4C01" d="M0.93 53.45c-1.58 0-2.87 1.29-2.87 2.87 0 1.59 1.29 2.87 2.87 2.87s2.87-1.28 2.87-2.87C3.8 54.73 2.52 53.45 0.93 53.45"/></svg>
