<svg xmlns="http://www.w3.org/2000/svg" version="1.1" x="0" y="0" viewBox="-3 -1 16 64" width="16" height="64" enable-background="new -3 -1 16 64" xml:space="preserve"><path fill="#CCC" d="M11.36 9.19c-0.24-0.7-1.75-0.86-2.32-1.23C8.13 7.37 7.32 6.64 6.58 5.86c-0.5-0.53-1.05-1.63-1.73-1.9 -0.72-0.28-1.08 0.42-1.65 0.69C2.58 4.94 1.79 4.92 1.4 4.31 1.12 3.88 1.22 3.01 0.51 3c-0.63-0.01-0.93 1.18-1.05 1.64C-0.68 5.16-0.59 5.63-0.67 6.14 -0.72 6.5-0.97 6.84-0.99 7.23c-0.11 1.91 2.67 2.42 4.05 2.48 1.03 0.04 1.93 0.33 2.83 0.82 0.9 0.48 1.68 0.94 2.73 0.96C9.64 11.52 12.24 10.75 11.36 9.19"/><path fill="#666" d="M11.36 25.19c-0.24-0.7-1.75-0.86-2.32-1.23 -0.9-0.58-1.72-1.32-2.45-2.1 -0.5-0.53-1.05-1.63-1.73-1.9 -0.72-0.28-1.08 0.42-1.65 0.69 -0.63 0.3-1.41 0.28-1.81-0.34 -0.27-0.42-0.18-1.3-0.89-1.31 -0.63-0.01-0.93 1.18-1.05 1.64 -0.13 0.52-0.05 0.99-0.12 1.5 -0.05 0.36-0.31 0.7-0.33 1.1 -0.11 1.91 2.67 2.42 4.05 2.48 1.03 0.04 1.93 0.33 2.83 0.82 0.9 0.48 1.68 0.94 2.73 0.96C9.64 27.52 12.24 26.75 11.36 25.19"/><path fill="#FFF" d="M11.36 41.19c-0.24-0.7-1.75-0.86-2.32-1.23 -0.9-0.58-1.72-1.32-2.45-2.1 -0.5-0.53-1.05-1.63-1.73-1.9 -0.72-0.28-1.08 0.42-1.65 0.69 -0.63 0.3-1.41 0.28-1.81-0.34 -0.27-0.42-0.18-1.3-0.89-1.31 -0.63-0.01-0.93 1.18-1.05 1.64 -0.13 0.52-0.05 0.99-0.12 1.5 -0.05 0.36-0.31 0.7-0.33 1.1 -0.11 1.91 2.67 2.42 4.05 2.48 1.03 0.04 1.93 0.33 2.83 0.82 0.9 0.48 1.68 0.94 2.73 0.96C9.64 43.52 12.24 42.75 11.36 41.19"/></svg>
